<svg width="349" height="375" viewBox="0 0 349 375" fill="none" xmlns="http://www.w3.org/2000/svg">
<g clip-path="url(#clip0)">
<path d="M94.7339 272.394H85.4196V371.919H94.7339V272.394Z" fill="white"/>
<path d="M58.7341 284.83C58.7341 284.83 59.9615 258.318 85.1238 261.4Z" fill="#E6E6E6"/>
<path d="M58.4388 374.664C58.4073 374.387 55.4374 346.761 67.4628 332.141C71.901 326.746 77.8479 323.724 85.1381 323.161L85.2184 324.202C78.2212 324.743 72.5175 327.637 68.2663 332.805C56.5222 347.08 59.4413 374.273 59.4718 374.546L58.4388 374.664Z" fill="#E6E6E6"/>
<path d="M58.4687 257.723H57.422V373.875H58.4687V257.723Z" fill="#E6E6E6"/>
<path d="M58.7342 258.318C63.4794 258.318 67.3262 254.455 67.3262 249.69C67.3262 244.924 63.4794 241.061 58.7342 241.061C53.989 241.061 50.1422 244.924 50.1422 249.69C50.1422 254.455 53.989 258.318 58.7342 258.318Z" fill="#FFDF63"/>
<path d="M85.1783 332.255C89.8935 332.255 93.716 328.417 93.716 323.681C93.716 318.946 89.8935 315.107 85.1783 315.107C80.4631 315.107 76.6406 318.946 76.6406 323.681C76.6406 328.417 80.4631 332.255 85.1783 332.255Z" fill="#FAFF00"/>
<path d="M349 94.8062V95.3738C348.987 96.7991 348.946 98.218 348.878 99.6304C347.654 123.802 337.27 146.589 319.855 163.32C302.44 180.051 279.312 189.46 255.212 189.618C231.111 189.777 207.863 180.673 190.232 164.172C172.6 147.671 161.92 125.022 160.381 100.869C160.253 98.8629 160.189 96.8421 160.189 94.8062C160.155 75.1702 166.223 56.013 177.548 40.0056C178.453 38.7157 179.395 37.4495 180.373 36.207C181.048 35.3427 181.741 34.4978 182.441 33.6594C198.378 14.6997 221.079 2.76798 245.675 0.424065C270.271 -1.91986 294.802 5.51078 314.006 21.1218C315.142 22.0441 316.26 22.9986 317.352 23.9724C318.225 24.7528 319.083 25.5504 319.927 26.3652C336.538 42.3218 346.763 63.8301 348.673 86.8348C348.891 89.4661 349 92.1233 349 94.8062Z" fill="#FAFF00"/>
<path d="M180.373 36.207C180.42 36.2265 180.463 36.2525 180.502 36.2844C181.009 36.7036 180.373 37.5098 180.451 38.174C180.54 39.0254 181.671 39.2124 182.525 39.2962C183.379 39.3865 184.458 40.0766 184.053 40.8376C181.908 41.5793 179.738 40.8505 177.548 40.0057C166.223 56.0131 160.155 75.1703 160.189 94.8063C160.189 96.8443 160.253 98.8651 160.381 100.869C160.561 101 160.757 101.107 160.966 101.185C161.608 101.43 162.353 101.385 162.944 101.733C163.413 102.01 163.727 102.5 164.196 102.758C165.538 103.494 167.401 102.081 168.653 102.958C168.977 103.254 169.283 103.569 169.571 103.9C170.727 104.906 172.628 104.229 173.964 104.983C174.825 105.467 175.268 106.435 175.73 107.312C176.88 109.504 178.742 111.659 181.202 111.833C181.978 111.797 182.755 111.823 183.527 111.91C184.285 112.084 185.03 112.749 184.908 113.516C184.696 114.838 185.344 116.283 185.171 117.605C184.856 120.023 181.446 121.081 181.157 123.5C181.156 124.032 181.126 124.564 181.067 125.093C180.913 125.725 180.438 126.241 180.271 126.873C179.95 128.066 180.804 129.259 181.735 130.059C182.673 130.865 183.79 131.561 184.304 132.684C184.843 133.877 184.58 135.263 184.753 136.56C185.139 139.391 187.573 141.487 190.077 142.841C190.88 143.178 191.593 143.7 192.158 144.364C192.8 145.299 192.736 146.531 192.954 147.646C193.481 150.374 195.767 152.625 195.832 155.405C195.877 157.385 194.785 159.178 194.13 161.042C193.456 162.996 193.256 165.083 193.545 167.13C197.207 170.249 201.099 173.084 205.189 175.611C205.411 175.281 205.574 174.914 205.67 174.527C205.748 174.1 205.694 173.659 205.517 173.262C205.339 172.866 205.045 172.534 204.675 172.309C205.365 172.047 205.993 171.643 206.518 171.122C206.776 170.856 206.946 170.516 207.006 170.149C207.066 169.783 207.012 169.406 206.852 169.071C207.982 169.213 209.325 169.284 210.07 168.413C210.667 167.717 210.628 166.672 210.391 165.788C210.153 164.898 209.755 164.041 209.748 163.118C212.367 163.246 214.992 163.158 217.596 162.854C217.219 161.578 216.362 160.5 215.207 159.849C216.389 159.649 217.461 158.23 217.834 157.088C218.156 155.924 218.174 154.695 217.885 153.522C217.796 153.22 217.783 152.901 217.847 152.593C218.037 152.184 218.371 151.86 218.784 151.684C220.737 150.555 222.689 149.428 224.641 148.304C224.99 148.128 225.307 147.894 225.579 147.614C226.189 146.885 226.099 145.795 225.785 144.899C225.47 144.002 224.969 143.157 224.847 142.216C224.487 139.397 227.493 137.372 228.508 134.715C228.853 133.654 229.039 132.548 229.06 131.432C229.143 130.233 229.15 128.846 228.238 128.079C227.358 127.337 225.99 127.505 225.072 126.815C224.23 126.183 223.941 124.964 223.023 124.454C222.188 123.99 221.148 124.287 220.217 124.067C218.585 123.687 217.558 121.797 215.888 121.623C214.95 121.52 213.884 121.984 213.114 121.436C212.433 120.946 212.407 119.972 212.279 119.146C212.051 117.86 211.436 116.676 210.518 115.751C209.599 114.826 208.421 114.206 207.141 113.974C206.171 113.819 205.118 113.877 204.29 113.342C203.455 112.8 203.076 111.788 202.414 111.033C201.361 109.827 199.691 109.395 198.131 109.027C196.011 108.531 193.894 108.032 191.779 107.531C190.655 107.26 189.204 107.118 188.594 108.111C188.413 108.489 188.288 108.891 188.221 109.305C187.992 110.049 187.534 110.701 186.914 111.169C186.294 111.637 185.542 111.896 184.766 111.91C184.235 110.999 183.375 110.33 182.364 110.04C181.704 109.928 181.052 109.773 180.412 109.575C180.078 109.411 179.781 109.18 179.538 108.896C179.296 108.612 179.114 108.282 179.004 107.925C178.893 107.568 178.856 107.193 178.895 106.821C178.934 106.449 179.048 106.09 179.23 105.764C179.594 105.109 179.735 104.353 179.629 103.611C179.523 102.868 179.178 102.181 178.646 101.656C177.567 100.682 176.006 100.443 174.555 100.54C174.176 99.7078 174.812 98.7727 175.493 98.1664C176.18 97.5666 177.008 96.9733 177.156 96.0703C177.394 94.6515 175.589 93.5744 174.221 93.9936C172.853 94.4193 171.98 95.7543 171.402 97.07C171.121 97.8463 170.739 98.5816 170.265 99.2564C170.022 99.5902 169.692 99.85 169.311 100.007C168.93 100.164 168.514 100.212 168.107 100.146C166.977 99.8562 166.547 98.5082 166.296 97.3731C165.895 95.856 165.692 94.2929 165.692 92.7231C165.702 91.1379 166.329 89.6194 167.439 88.4923C169.308 86.7639 172.185 86.9315 174.709 87.2088C174.439 86.8468 174.309 86.3981 174.345 85.9469C174.38 85.4958 174.578 85.0731 174.902 84.7581C175.24 84.4569 175.645 84.2431 176.084 84.1352C176.523 84.0273 176.981 84.0286 177.419 84.139C178.18 84.2972 178.866 84.7084 179.365 85.3063C180.084 86.1834 180.29 87.3766 180.829 88.3698C181.375 89.3694 182.596 90.2207 183.591 89.6854C184.458 89.2211 184.593 88.0215 184.381 87.0605C184.163 86.106 183.707 85.1709 183.784 84.1906C183.931 82.3267 185.864 81.198 187.566 80.4305C189.268 79.6631 191.214 78.6247 191.484 76.7673C191.496 76.4061 191.566 76.0491 191.689 75.7096C191.878 75.4066 192.141 75.1577 192.454 74.9873C197.418 71.6916 202.472 68.3508 208.149 66.5514C208.445 66.4547 208.477 66.5579 208.779 66.487C209.202 66.2419 208.92 65.5647 208.515 65.2938C208.111 65.023 207.571 64.8101 207.469 64.3329C207.398 63.9846 207.603 63.6363 207.655 63.2816C207.668 63.0674 207.629 62.8531 207.541 62.6575C207.453 62.462 207.318 62.2911 207.149 62.16C206.979 62.0289 206.781 61.9414 206.57 61.9053C206.359 61.8693 206.143 61.8856 205.94 61.953C205.484 61.3468 206.383 60.6438 207.115 60.4374C209.307 59.8344 211.557 59.4668 213.826 59.341C214.088 59.2976 214.357 59.343 214.591 59.47C214.758 59.6317 214.857 59.8514 214.867 60.0841C214.878 60.3167 214.8 60.5447 214.649 60.7212C214.34 61.0658 213.997 61.3791 213.627 61.6564C213.259 62.0157 212.996 62.4698 212.867 62.9691C212.738 63.4684 212.747 63.9936 212.895 64.4876C214.083 65.0939 215.368 65.7195 216.684 65.5067C217.994 65.2938 219.157 63.8105 218.54 62.6302C217.969 61.5274 216.241 61.2758 215.946 60.0698C215.599 58.6574 217.59 57.3997 217.14 56.0196C216.948 55.4133 216.344 55.0521 215.882 54.62C215.337 54.082 214.967 53.3918 214.819 52.6394C214.672 51.887 214.753 51.1074 215.053 50.4021C214.301 50.534 213.529 50.4835 212.8 50.2546C212.072 50.0257 211.409 49.6252 210.866 49.0864C209.864 48.0739 209.068 46.468 207.642 46.5196C206.338 46.5583 205.214 48.0868 203.994 47.6224C203.692 47.5063 203.378 47.2742 203.089 47.4096C202.993 47.4712 202.913 47.5536 202.854 47.6508C202.795 47.748 202.759 47.8574 202.748 47.9707C202.44 49.4605 202.973 51.1567 202.164 52.4466C201.284 53.8461 199.248 54.0396 198.182 55.3037C197.604 55.9873 197.379 56.9096 196.846 57.6319C196.313 58.3542 195.189 58.8186 194.547 58.1866C194.862 57.5391 194.948 56.8035 194.791 56.1004C194.635 55.3974 194.245 54.7685 193.687 54.3169C193.095 53.927 192.456 53.6149 191.786 53.3882C191.037 53.0707 190.324 52.6729 189.66 52.2015C189.329 51.9991 189.06 51.709 188.883 51.3631C188.742 50.9281 188.761 50.4573 188.934 50.0345C189.259 49.1031 189.831 48.2782 190.588 47.6487C191.345 47.0192 192.259 46.6087 193.231 46.4616C194.078 46.3455 195.067 46.3842 195.632 45.7328C195.928 45.391 196.082 44.8686 196.519 44.7332C196.794 44.6755 197.08 44.7094 197.334 44.8299C198.394 45.204 199.447 45.578 200.507 45.9521C200.86 46.1148 201.251 46.1794 201.637 46.1391C201.829 46.1143 202.004 46.0172 202.127 45.8674C202.25 45.7177 202.311 45.5266 202.299 45.3329C202.196 44.8041 201.387 44.5526 201.464 44.0173C201.501 43.8424 201.594 43.6841 201.727 43.5658C202.873 42.3423 204.273 41.3881 205.828 40.7716C207.384 40.155 209.056 39.8913 210.725 39.9993C211.123 40.6636 210.493 41.4439 209.96 42.005C209.434 42.5726 209.01 43.5787 209.652 44.0108C209.911 44.1472 210.201 44.2139 210.493 44.2043C211.274 44.3095 212.033 44.5403 212.741 44.8879C213.839 45.3652 214.918 45.894 215.971 46.4616C215.816 45.7701 215.843 45.05 216.049 44.372C216.165 44.0391 216.4 43.7616 216.709 43.5935C217.017 43.4254 217.377 43.3787 217.718 43.4626C218.348 43.7077 218.669 44.5461 219.343 44.6235C220.236 44.7267 220.589 43.3981 220.217 42.5726C219.844 41.7471 219.099 41.0634 219.041 40.1541C218.996 39.5478 219.228 38.7932 218.746 38.4256C218.575 38.3117 218.379 38.2409 218.174 38.2192C214.141 37.4776 210.106 36.7337 206.069 35.9877C205.349 35.8523 204.315 35.9555 204.283 36.6843C204.264 37.097 204.63 37.5034 204.469 37.8774C204.296 38.2773 203.731 38.245 203.32 38.3869C203.011 38.5276 202.756 38.7655 202.594 39.0645C202.432 39.3636 202.371 39.7076 202.421 40.0444C202.53 40.715 202.79 41.3522 203.179 41.9083C202.389 41.5794 201.2 41.5213 200.411 41.186C200.296 40.2674 200.062 39.3677 199.717 38.5095C199.697 38.3729 199.648 38.2423 199.572 38.1269C199.497 38.0115 199.397 37.9141 199.28 37.8416C199.164 37.769 199.032 37.7231 198.896 37.707C198.759 37.6909 198.621 37.705 198.49 37.7484C197.45 37.9097 196.41 38.0644 195.369 38.2257C195.108 38.2381 194.858 38.3355 194.656 38.503C194.252 38.9351 194.65 39.6252 194.637 40.2186C194.599 40.5503 194.46 40.8621 194.238 41.1106C194.016 41.3591 193.722 41.5319 193.398 41.6052C192.744 41.7385 192.069 41.7297 191.42 41.5794C189.962 41.3536 188.51 41.1279 187.052 40.9022C188.339 40.4904 189.484 39.7212 190.353 38.6836C190.931 38 191.24 36.723 190.405 36.4005C190.158 36.3325 189.901 36.3128 189.647 36.3425C187.669 36.3554 186.108 34.6979 184.259 33.9949C183.677 33.777 183.062 33.6635 182.441 33.6595L180.373 36.207Z" fill="#3F3D56"/>
<path d="M348.878 99.6304C348.651 99.9357 348.354 100.181 348.011 100.344C347.669 100.507 347.292 100.583 346.913 100.566C344.903 100.391 344.055 97.4827 342.064 97.1538C341.888 97.1085 341.702 97.1268 341.537 97.2054C341.242 97.3666 341.191 97.7665 341.171 98.1019C341.088 99.7658 341.017 101.494 341.666 103.029C342.61 105.274 345.057 107.157 344.543 109.537C341.781 108.253 340.343 105.138 339.694 102.152C339.039 99.166 338.936 96.0316 337.768 93.2068C336.875 94.3483 335.013 93.4067 334.203 92.2071C333.433 91.072 332.957 89.7564 332.212 88.6019C331.468 87.4539 330.324 86.422 328.963 86.3575C327.531 86.293 326.285 87.2798 325.193 88.215C324.243 88.9195 323.446 89.8103 322.849 90.8334C322.085 92.3813 322.284 94.2 322.245 95.922C322.207 97.7794 321.815 99.7465 320.55 101.114C319.285 102.475 316.953 102.952 315.56 101.72C314.886 101.015 314.406 100.146 314.166 99.1983C312.651 94.7642 311.39 90.2465 310.39 85.6675C310.159 86.7123 309.24 88.0602 308.367 87.4475C308.172 87.2807 308.014 87.0741 307.905 86.8413C306.273 84.0745 303.261 82.4105 300.211 81.4109C297.167 80.4177 293.962 79.9533 290.95 78.8569C289.261 78.2409 287.647 77.4339 286.14 76.4513C285.757 77.0177 285.534 77.6773 285.493 78.3606C285.452 79.044 285.596 79.7257 285.909 80.3338C286.247 80.9289 286.772 81.395 287.401 81.6597C288.031 81.9245 288.73 81.973 289.39 81.7978C290.057 81.5786 290.623 81.1142 291.284 80.882C291.946 80.6563 292.838 80.7659 293.127 81.4109C293.41 82.0236 292.986 82.7653 293.198 83.4102C293.513 84.3841 294.983 84.4614 295.497 85.3515C295.648 85.7039 295.683 86.0956 295.596 86.4693C295.509 86.843 295.306 87.179 295.015 87.4282C294.424 87.9121 293.772 88.3155 293.076 88.6278C290.918 89.8338 289.383 91.8912 287.495 93.4906C285.607 95.0965 282.942 96.2639 280.694 95.2384C281.227 92.5103 277.997 90.511 277.399 87.7958C277.2 86.8993 277.303 85.9512 277.027 85.0806C276.622 83.8165 275.505 82.9523 274.593 81.9978C273.485 80.826 272.622 79.4434 272.054 77.9316C271.486 76.4197 271.224 74.809 271.286 73.1943C271.337 72.0721 271.542 70.9306 271.286 69.8342C271.035 68.7442 270.13 67.6865 269.012 67.7317C266.462 67.8478 263.245 68.0412 261.909 65.8549C261.427 65.0745 261.222 63.933 261.916 63.3332C262.404 62.914 263.123 62.9527 263.759 63.0172C265.679 63.2042 267.593 63.3977 269.513 63.5847C270.855 63.7137 272.307 63.8233 273.463 63.1204C274.619 62.4174 275.12 60.5406 274.047 59.7086C273.27 59.1024 271.87 59.1346 271.639 58.1737C271.452 57.3675 272.339 56.4581 271.857 55.781C271.517 55.3037 270.746 55.4327 270.277 55.7939C269.868 56.2204 269.423 56.6109 268.948 56.9612C268.029 57.4385 266.938 56.9805 265.949 56.671C264.96 56.3614 263.637 56.3356 263.161 57.2579C262.622 58.2833 263.63 59.6377 263.104 60.6696C262.397 62.0304 260.021 61.2565 259.032 62.4303C257.902 63.7718 259.803 65.784 259.424 67.4995C258.936 67.7425 258.394 67.8542 257.85 67.8237C257.306 67.7932 256.78 67.6215 256.322 67.3254C255.872 67.0184 255.514 66.5948 255.286 66.0996C255.058 65.6044 254.967 65.0562 255.025 64.5135C255.114 63.7395 255.519 62.9462 255.249 62.2175C254.959 61.6546 254.478 61.2136 253.894 60.9727C252.032 59.9344 250.169 58.9003 248.307 57.8706C247.787 58.838 248.442 60.0311 249.264 60.7599C250.079 61.4822 251.107 62.0304 251.646 62.9849C251.988 63.6465 252.065 64.414 251.862 65.1308C251.659 65.8476 251.192 66.4595 250.555 66.8417C250.474 66.8974 250.382 66.9349 250.286 66.9516C250.189 66.9683 250.091 66.9638 249.996 66.9384C249.907 66.886 249.829 66.8161 249.768 66.7331C249.706 66.65 249.661 66.5554 249.636 66.4547C248.654 63.9201 247.17 61.4242 244.807 60.1021C242.437 58.7735 239.04 59.0508 237.486 61.2759C237.12 61.8047 236.869 62.4109 236.548 62.972C234.846 65.9452 231.185 67.3512 227.769 67.2609C227.435 67.2824 227.102 67.2039 226.812 67.0352C226.26 66.6547 226.285 65.842 226.369 65.1713C226.491 64.2232 226.606 63.2816 226.729 62.3336C226.731 61.7547 226.954 61.1988 227.351 60.7792C227.987 60.2762 228.899 60.5922 229.708 60.5793C230.319 60.552 230.907 60.336 231.39 59.9608C231.874 59.5857 232.231 59.0697 232.412 58.4833C232.575 57.8915 232.574 57.2664 232.408 56.6753C232.243 56.0842 231.92 55.5498 231.474 55.1296C231.108 54.7813 230.614 54.3428 230.807 53.872C230.885 53.7423 230.99 53.6312 231.116 53.5466C231.241 53.462 231.383 53.4057 231.532 53.3818C232.977 52.9626 234.512 52.853 235.931 52.3499C237.357 51.8533 238.738 50.8343 239.078 49.3574C239.181 48.9059 239.226 48.3577 239.631 48.132C239.835 48.0497 240.053 48.0059 240.273 48.003C241.045 47.8919 241.748 47.4948 242.243 46.8897C242.739 46.2847 242.991 45.5155 242.951 44.7331C243.632 44.2559 244.589 44.6106 245.25 45.1201C245.905 45.6296 246.489 46.3004 247.292 46.5196C248.789 46.9324 250.234 45.5974 251.788 45.5909C252.443 45.5909 253.117 45.8231 253.727 45.5974C254.35 45.3716 254.723 44.7525 255.198 44.2946C255.68 43.8302 256.514 43.5529 256.958 44.0495C256.829 43.1144 256.707 42.1856 256.579 41.2569C257.335 41.4483 258.124 41.4748 258.892 41.3346C259.659 41.1944 260.388 40.8909 261.029 40.4443C259.411 39.8961 257.799 39.3479 256.181 38.7997C256.011 38.7576 255.854 38.6733 255.725 38.5546C255.371 38.1741 255.725 37.5808 256.007 37.1486C256.694 36.1103 256.81 34.4012 255.68 33.8853C254.909 33.5305 254.029 33.9562 253.291 34.369C252.109 35.0268 250.927 35.6911 249.746 36.3489C249.636 37.0261 250.458 37.4131 250.966 37.8645C251.275 38.1399 251.494 38.5029 251.594 38.9056C251.693 39.3084 251.669 39.732 251.525 40.1208C251.38 40.5096 251.122 40.8454 250.784 41.0838C250.445 41.3223 250.043 41.4524 249.63 41.4568C249.863 41.762 250.024 42.1156 250.103 42.4917C250.182 42.8678 250.176 43.2568 250.086 43.6303C249.296 43.6883 248.5 43.7464 247.703 43.8044C247.571 43.8309 247.435 43.8309 247.303 43.8043C247.17 43.7777 247.045 43.7252 246.933 43.6496C246.676 43.4239 246.714 43.0241 246.65 42.6887C246.544 42.2878 246.321 41.928 246.01 41.6556C245.699 41.3831 245.313 41.2106 244.903 41.1602C244.085 41.0678 243.257 41.1446 242.469 41.3859C242.127 41.507 241.752 41.4979 241.416 41.3601C241.225 41.2334 241.081 41.0478 241.005 40.8313C240.865 40.389 240.841 39.918 240.936 39.4638C241.03 39.0097 241.24 38.5876 241.544 38.2386C242.161 37.5508 242.841 36.9225 243.574 36.3618C245.236 34.9008 246.457 33.0019 247.1 30.8799C248.41 30.3252 249.765 29.5771 251.081 29.0224C252.14 28.5298 253.249 28.1557 254.389 27.9067C255.462 27.7421 256.548 27.6903 257.632 27.7519C259.109 27.7777 260.593 27.8035 262.07 27.8357C263.388 27.7801 264.706 27.9703 265.955 28.3968C267.169 28.8999 268.241 29.9898 268.325 31.3055C268.35 31.4554 268.337 31.6094 268.286 31.7527C268.236 31.8961 268.149 32.0241 268.036 32.1246C267.865 32.2193 267.672 32.264 267.477 32.2536C266.25 32.2923 265.73 32.6018 264.504 32.647C265.281 33.479 266.154 34.3561 267.284 34.5044C269.275 34.7624 270.707 32.6921 271.626 30.8927C271.659 31.3508 271.868 31.7777 272.21 32.0826C272.552 32.3874 272.999 32.546 273.456 32.5244C273.948 32.4395 274.418 32.2552 274.837 31.9827C278.787 29.8147 283.212 28.6667 287.713 28.6419C287.669 28.2997 287.753 27.9531 287.949 27.6695C288.145 27.3859 288.438 27.1854 288.773 27.1069C289.691 26.9264 290.513 27.7196 290.957 28.5452C291.393 29.3707 291.669 30.3252 292.376 30.9443C293.076 31.5635 294.431 31.5312 294.707 30.6412C294.977 29.7835 294.084 29.0482 293.346 28.5387C292.601 28.0357 291.824 27.1005 292.324 26.3523C296.101 25.5075 299.909 24.6691 303.782 24.5014C304.44 24.5214 305.095 24.4073 305.708 24.166C306.012 24.0369 306.264 23.8108 306.427 23.5227C306.59 23.2347 306.653 22.9009 306.607 22.573C305.762 22.771 304.878 22.7125 304.066 22.4047C303.254 22.097 302.552 21.554 302.048 20.8445C306.023 20.5156 310.184 20.2254 314.006 21.1219L317.352 23.9725C316.716 24.6368 315.868 25.2624 316.33 25.9267C316.483 26.0792 316.668 26.1951 316.872 26.2654C317.075 26.3358 317.292 26.3589 317.506 26.333C318.315 26.3459 319.124 26.3652 319.927 26.3652C336.538 42.3219 346.763 63.8302 348.672 86.8349C347.324 86.7833 346.084 88.4988 346.258 89.9951C346.463 91.73 347.709 93.123 348.602 94.6193C348.75 94.8625 348.883 95.1145 349 95.3739L348.878 99.6304Z" fill="#3F3D56"/>
<path d="M224.06 188.123C233.02 188.123 240.284 180.828 240.284 171.83C240.284 162.832 233.02 155.538 224.06 155.538C215.1 155.538 207.837 162.832 207.837 171.83C207.837 180.828 215.1 188.123 224.06 188.123Z" fill="#2F2E41"/>
<path d="M216.316 180.061C216.316 180.061 211.031 191.812 209.522 192.191C208.012 192.57 221.977 199.393 221.977 199.393C221.977 199.393 224.62 184.989 225.752 184.231C226.884 183.473 216.316 180.061 216.316 180.061Z" fill="#FFB9B9"/>
<path d="M184.987 276.341L175.173 304.012L185.742 308.182L203.86 272.171L184.987 276.341Z" fill="#FFB9B9"/>
<path d="M219.335 277.099C219.335 277.099 238.963 304.77 240.095 305.149C241.227 305.528 249.154 298.705 249.154 298.705C249.154 298.705 239.34 274.825 236.321 273.688C233.301 272.55 219.335 277.099 219.335 277.099Z" fill="#FFB9B9"/>
<path d="M173.664 299.084L158.188 339.643C158.188 339.643 159.32 341.917 158.188 342.296C157.056 342.675 154.414 348.74 154.414 349.119C154.414 349.498 151.771 349.877 151.771 351.014C151.771 352.152 149.507 361.249 149.507 361.249C149.507 361.249 153.659 370.346 156.301 367.693C158.943 365.039 160.075 359.733 160.075 359.733L163.85 349.877C163.85 349.877 163.472 344.571 166.115 343.812C168.757 343.054 170.267 333.578 170.267 333.578C170.267 333.578 174.419 329.408 175.173 328.271C175.928 327.134 189.139 307.044 188.007 306.665C186.874 306.286 173.664 299.084 173.664 299.084Z" fill="#2F2E41"/>
<path d="M237.83 304.391L249.154 296.81C249.154 296.81 268.781 332.82 268.781 333.578C268.781 334.336 268.027 336.61 268.781 337.368C269.536 338.127 275.953 350.256 280.105 351.393C284.257 352.531 285.012 357.079 281.615 357.837C278.218 358.595 273.688 360.491 272.556 357.837C271.894 356.276 271.138 354.757 270.291 353.289C270.291 353.289 266.517 354.426 266.139 353.668C265.704 352.551 265.326 351.412 265.007 350.256C265.007 350.256 261.987 344.949 261.987 343.054C261.987 341.159 260.1 340.78 260.1 340.78C260.1 340.78 255.948 330.925 253.306 329.408C250.664 327.892 248.399 320.311 248.399 320.311L237.83 304.391Z" fill="#2F2E41"/>
<path d="M224.242 188.78C230.287 188.78 235.188 183.858 235.188 177.787C235.188 171.716 230.287 166.795 224.242 166.795C218.197 166.795 213.296 171.716 213.296 177.787C213.296 183.858 218.197 188.78 224.242 188.78Z" fill="#FFB9B9"/>
<path d="M191.781 244.501C191.781 244.501 175.581 287.72 177.846 287.72C180.11 287.72 242.764 289.089 244.651 286.057C246.538 283.025 228.394 252.84 227.639 252.461C226.884 252.082 191.781 244.501 191.781 244.501Z" fill="#2F2E41"/>
<path d="M175.551 154.286L164.227 136.849C164.227 136.849 167.028 118.558 163.253 121.97C159.479 125.381 158.284 139.158 158.284 139.158L171.399 159.214L175.551 154.286Z" fill="#FFB9B9"/>
<path d="M278.218 186.126L288.409 185.368C288.409 185.368 300.487 172.48 301.242 176.65C301.997 180.82 291.429 189.917 291.429 189.917L277.463 191.433L278.218 186.126Z" fill="#FFB9B9"/>
<path d="M203.86 189.917V186.126C203.86 186.126 194.046 179.682 194.423 178.545C194.801 177.408 193.669 176.65 193.669 176.65C193.669 176.65 192.536 175.134 192.536 174.755C192.536 174.376 191.026 173.997 191.026 173.997L181.59 163.004C181.59 163.004 176.306 152.391 175.173 152.77C174.041 153.149 168.002 155.423 168.757 156.939C169.512 158.455 190.649 191.054 190.649 191.054C190.649 191.054 191.781 198.256 193.669 198.256C195.556 198.256 203.86 189.917 203.86 189.917Z" fill="#F86D70"/>
<path d="M229.149 194.466C229.149 194.466 237.453 194.086 237.83 194.466C238.208 194.845 243.492 194.466 243.492 194.466C243.492 194.466 257.835 191.054 258.968 189.917C260.1 188.78 278.973 183.852 279.728 186.126C280.482 188.401 282.37 192.949 280.482 193.707C278.595 194.465 227.639 207.353 227.639 207.353L229.149 194.466Z" fill="#F86D70"/>
<path d="M218.385 161.424C222.093 161.424 225.098 158.406 225.098 154.683C225.098 150.959 222.093 147.941 218.385 147.941C214.677 147.941 211.672 150.959 211.672 154.683C211.672 158.406 214.677 161.424 218.385 161.424Z" fill="#2F2E41"/>
<path d="M209.434 151.031C209.434 149.365 210.049 147.757 211.159 146.519C212.27 145.281 213.798 144.499 215.448 144.326C215.216 144.302 214.982 144.289 214.749 144.289C212.968 144.289 211.261 145 210.002 146.264C208.743 147.528 208.035 149.243 208.035 151.031C208.035 152.819 208.743 154.534 210.002 155.798C211.261 157.062 212.968 157.773 214.749 157.773C214.982 157.773 215.216 157.76 215.448 157.736C213.798 157.563 212.27 156.781 211.159 155.543C210.049 154.305 209.434 152.697 209.434 151.031V151.031Z" fill="#2F2E41"/>
<path d="M225.948 175.118C232.127 175.118 237.136 172.099 237.136 168.376C237.136 164.653 232.127 161.634 225.948 161.634C219.768 161.634 214.759 164.653 214.759 168.376C214.759 172.099 219.768 175.118 225.948 175.118Z" fill="#2F2E41"/>
<path d="M213.107 185.937C213.107 185.937 209.71 188.59 208.955 188.969C208.201 189.348 203.671 185.558 202.916 185.558C202.161 185.558 192.348 196.929 192.348 196.929C192.348 196.929 194.171 199.039 192.348 209.817C191.664 213.859 190.307 231.141 190.307 233.415C190.307 235.689 182.911 241.279 189.705 246.206C196.499 251.134 228.96 256.441 229.338 253.408C229.715 250.376 225.563 242.416 227.451 238.625C229.338 234.835 229.338 220.81 229.338 220.81L231.603 206.027L233.49 194.276C233.49 194.276 224.62 191.812 223.865 191.812C223.11 191.812 219.713 197.119 213.107 185.937Z" fill="#F86D70"/>
<path d="M112.266 222.313H102.504V371.336H112.266V222.313Z" fill="white"/>
<path d="M127.682 227.199H118.367V371.071H127.682V227.199Z" fill="#CCCBEB"/>
<path d="M78.0979 337.134H68.3357V371.336H78.0979V337.134Z" fill="white"/>
<path d="M48.8112 353.013H39.049V371.336H48.8112V353.013Z" fill="#CCCBEB"/>
<path d="M159.124 261.526L129.646 279.244C129.552 279.308 129.474 279.398 129.421 279.506C129.37 279.614 129.345 279.736 129.35 279.859C129.355 279.981 129.39 280.1 129.45 280.202C129.51 280.305 129.595 280.388 129.694 280.442L134.719 282.547C134.865 282.607 134.999 282.699 135.113 282.817C135.227 282.936 135.318 283.078 135.382 283.236L139.292 292.17C139.368 292.565 140.02 292.673 140.031 292.272L139.432 284.882C139.467 284.334 139.656 283.813 139.971 283.392L155.252 266.755C155.295 266.708 155.348 266.674 155.407 266.655C155.465 266.636 155.526 266.634 155.585 266.648C155.64 266.664 155.689 266.695 155.731 266.737C155.772 266.78 155.803 266.833 155.823 266.891C155.841 266.95 155.848 267.013 155.84 267.075C155.832 267.137 155.812 267.195 155.78 267.246L142.6 285.151C142.313 285.586 142.128 286.094 142.06 286.629L141.269 293.008C141.333 293.564 141.727 293.78 142.045 293.278L144.883 289.579C144.928 289.508 144.986 289.446 145.053 289.4C145.119 289.352 145.194 289.321 145.271 289.306C145.349 289.292 145.429 289.295 145.505 289.315C145.582 289.335 145.654 289.372 145.719 289.424L153.033 295.342C153.113 295.408 153.205 295.449 153.304 295.465C153.402 295.479 153.503 295.466 153.596 295.426C153.688 295.386 153.77 295.32 153.833 295.235C153.897 295.15 153.94 295.05 153.959 294.94L159.96 262.214C159.985 262.089 159.978 261.96 159.939 261.84C159.901 261.721 159.832 261.616 159.741 261.539C159.65 261.461 159.541 261.414 159.427 261.403C159.313 261.392 159.199 261.419 159.098 261.477L159.124 261.526Z" fill="white"/>
<path d="M99.6687 183.293L79.5395 195.387C79.4706 195.428 79.4137 195.49 79.3744 195.565C79.335 195.641 79.3153 195.728 79.3186 195.815C79.3208 195.902 79.3459 195.987 79.3897 196.059C79.4334 196.132 79.4947 196.189 79.5668 196.224L83.003 197.661C83.2031 197.745 83.365 197.912 83.4558 198.127L86.1494 204.231C86.203 204.5 86.6502 204.572 86.6557 204.303L86.2456 199.252C86.2718 198.88 86.3998 198.525 86.612 198.235L97.0506 186.865C97.0801 186.833 97.1162 186.81 97.1556 186.798C97.195 186.785 97.2365 186.784 97.277 186.793C97.3164 186.803 97.3524 186.825 97.3831 186.855C97.4126 186.885 97.4356 186.923 97.4487 186.966C97.4618 187.008 97.464 187.054 97.4574 187.098C97.4498 187.142 97.4323 187.184 97.406 187.218L88.411 199.444C88.2229 199.742 88.1026 200.087 88.061 200.449L87.523 204.806C87.5656 205.189 87.8292 205.332 88.061 204.991L90 202.466C90.0613 202.376 90.1509 202.315 90.2505 202.295C90.35 202.275 90.4528 202.298 90.5392 202.358L95.5316 206.403C95.5863 206.448 95.6508 206.477 95.7186 206.487C95.7853 206.496 95.8542 206.487 95.9176 206.46C95.981 206.432 96.0368 206.387 96.0806 206.33C96.1243 206.271 96.1538 206.202 96.167 206.128L100.266 183.783C100.286 183.699 100.282 183.609 100.256 183.527C100.231 183.444 100.184 183.372 100.122 183.318C100.059 183.265 99.9837 183.233 99.905 183.226C99.8262 183.219 99.7486 183.238 99.6797 183.281L99.6687 183.293Z" fill="white"/>
<path d="M154.333 197.883L135.763 199.481C135.7 199.487 135.64 199.513 135.589 199.555C135.538 199.598 135.5 199.653 135.476 199.719C135.453 199.785 135.445 199.856 135.456 199.926C135.467 199.995 135.494 200.059 135.536 200.111L137.66 202.443C137.721 202.511 137.77 202.59 137.804 202.679C137.838 202.767 137.855 202.862 137.855 202.958L138.025 208.47C137.981 208.689 138.293 208.907 138.377 208.706L139.568 204.798C139.697 204.53 139.898 204.312 140.143 204.176L151.287 199.566C151.319 199.553 151.353 199.548 151.387 199.553C151.419 199.558 151.452 199.572 151.479 199.594C151.505 199.617 151.526 199.646 151.539 199.679C151.552 199.713 151.557 199.749 151.554 199.786C151.551 199.822 151.54 199.858 151.521 199.888C151.504 199.918 151.479 199.943 151.449 199.96L141.12 205.77C140.889 205.921 140.695 206.134 140.557 206.389L138.859 209.433C138.777 209.73 138.935 209.938 139.196 209.763L141.392 208.597C141.468 208.552 141.557 208.539 141.64 208.563C141.725 208.586 141.797 208.644 141.844 208.726L144.355 213.569C144.384 213.619 144.425 213.66 144.472 213.689C144.519 213.719 144.571 213.736 144.625 213.738C144.678 213.74 144.732 213.729 144.781 213.705C144.83 213.68 144.873 213.643 144.907 213.596L154.628 198.479C154.662 198.421 154.682 198.354 154.685 198.285C154.688 198.216 154.674 198.146 154.645 198.086C154.615 198.025 154.571 197.974 154.517 197.939C154.463 197.903 154.402 197.885 154.339 197.885L154.333 197.883Z" fill="white"/>
<path d="M141.153 332.304L121.024 344.403C120.957 344.445 120.901 344.507 120.863 344.582C120.824 344.657 120.806 344.742 120.808 344.829C120.811 344.915 120.835 344.998 120.878 345.07C120.921 345.142 120.981 345.199 121.052 345.235L124.488 346.671C124.689 346.756 124.852 346.926 124.941 347.144L127.607 353.241C127.661 353.511 128.108 353.583 128.112 353.314L127.725 348.269C127.75 347.894 127.878 347.537 128.091 347.246L138.53 335.876C138.56 335.844 138.596 335.821 138.635 335.808C138.674 335.796 138.716 335.794 138.756 335.804C138.796 335.814 138.832 335.835 138.861 335.866C138.892 335.896 138.915 335.934 138.927 335.977C138.94 336.019 138.943 336.065 138.936 336.109C138.928 336.153 138.911 336.195 138.885 336.229L129.88 348.467C129.69 348.765 129.571 349.11 129.53 349.472L128.99 353.834C129.034 354.212 129.303 354.355 129.53 354.014L131.469 351.489C131.499 351.44 131.537 351.399 131.583 351.367C131.628 351.335 131.679 351.314 131.731 351.304C131.783 351.294 131.837 351.295 131.89 351.309C131.941 351.322 131.99 351.346 132.034 351.381L137.033 355.426C137.086 355.471 137.151 355.5 137.218 355.51C137.284 355.52 137.353 355.511 137.417 355.483C137.479 355.455 137.535 355.41 137.579 355.352C137.621 355.294 137.651 355.225 137.663 355.151L141.729 332.806C141.749 332.721 141.745 332.632 141.719 332.549C141.694 332.467 141.647 332.394 141.584 332.341C141.522 332.287 141.447 332.255 141.368 332.249C141.289 332.242 141.21 332.261 141.142 332.304H141.153Z" fill="#6C63FF"/>
<path d="M43.2008 256.591L13.7211 274.286C13.627 274.349 13.5494 274.439 13.4969 274.547C13.4444 274.655 13.4192 274.777 13.4236 274.899C13.428 275.021 13.4619 275.14 13.522 275.243C13.5822 275.346 13.6653 275.429 13.7648 275.483L18.7955 277.584C19.0875 277.71 19.3248 277.957 19.4582 278.272L23.3624 287.212C23.4379 287.607 24.0952 287.709 24.1006 287.308L23.5024 279.923C23.5385 279.375 23.7266 278.852 24.0416 278.427L39.3272 261.792C39.3709 261.745 39.4245 261.711 39.4824 261.692C39.5404 261.674 39.6017 261.671 39.6618 261.684C39.7154 261.701 39.7646 261.732 39.8051 261.775C39.8455 261.818 39.8762 261.87 39.8947 261.929C39.9133 261.988 39.9188 262.05 39.9111 262.112C39.9035 262.173 39.8827 262.232 39.8499 262.282L26.675 280.271C26.3896 280.704 26.2037 281.21 26.137 281.743L25.3769 288.122C25.4414 288.678 25.8351 288.888 26.1479 288.391L28.9858 284.687C29.0307 284.615 29.0886 284.553 29.1554 284.507C29.2221 284.46 29.2964 284.428 29.3741 284.414C29.4517 284.399 29.5316 284.403 29.6081 284.422C29.6847 284.443 29.7569 284.479 29.8214 284.532L37.1355 290.456C37.2154 290.522 37.3094 290.563 37.4078 290.577C37.5074 290.592 37.6069 290.579 37.6998 290.539C37.7928 290.498 37.8759 290.434 37.9393 290.349C38.0039 290.264 38.0476 290.163 38.0673 290.055L44.068 257.328C44.0932 257.204 44.0866 257.074 44.0472 256.954C44.009 256.835 43.9401 256.73 43.8493 256.652C43.7585 256.575 43.6491 256.528 43.5354 256.517C43.4217 256.506 43.3068 256.532 43.2051 256.591H43.2008Z" fill="#6C63FF"/>
</g>
<defs>
<clipPath id="clip0">
<rect width="349" height="375" fill="white"/>
</clipPath>
</defs>
</svg>
